# xmcd
#
# Track frame offsets:
#	150
#	16702
#	39210
#	61742
#	85810
#
# Disc length: 1428 seconds
#
# Revision: 0
# Processed by: cddbd v1.5.2PL0 Copyright (c) Steve Scherf et al.
# Submitted via: dBpowerAMP V4.0
#
DISCID=28059205
DTITLE=Johnnie Taylor - Slide On
DYEAR=1997
DGENRE=Blues
TTITLE0=Slide On (Radio Mix Short)
TTITLE1=Slide On (Radio Mix)
TTITLE2=Slide On (instrumental)
TTITLE3=Slide On (Crazy Mix)
TTITLE4=Slide On (Album Cut Mix)
EXTD=
EXTT0=
EXTT1=
EXTT2=
EXTT3=
EXTT4=
PLAYORDER=
